<?xml version="1.0" standalone="no"?><!DOCTYPE svg PUBLIC "-//W3C//DTD SVG 1.1//EN" "http://www.w3.org/Graphics/SVG/1.1/DTD/svg11.dtd"><svg t="1559095814446" class="icon" style="" viewBox="0 0 1024 1024" version="1.1" xmlns="http://www.w3.org/2000/svg" p-id="1309" xmlns:xlink="http://www.w3.org/1999/xlink" width="16" height="16"><defs><style type="text/css"></style></defs><path d="M512 65.838497c-246.415202 0-446.161503 199.817931-446.161503 446.161503 0 246.439762 199.7463 446.161503 446.161503 446.161503 246.36813 0 446.161503-199.721741 446.161503-446.161503C958.161503 265.656429 758.36813 65.838497 512 65.838497M556.611034 865.840864 556.611034 735.080751l-89.222067 0 0 130.760113c-161.089885-20.188808-288.99395-148.103106-309.255413-309.22983l130.785695 0 0-89.222067L158.133553 467.388966c20.261463-161.088862 148.165528-288.969391 309.255413-309.217551l0 130.747833 89.222067 0 0-130.747833C717.699895 178.419576 845.604984 306.299081 865.840864 467.388966L735.080751 467.388966l0 89.222067 130.760113 0C845.604984 717.737758 717.699895 845.652056 556.611034 865.840864" p-id="1310" fill="#1296db"></path></svg>